<svg width="268" height="210" viewBox="0 0 268 210" fill="none" xmlns="http://www.w3.org/2000/svg">
<path d="M139.705 6.1123L139.792 0.61299L139.462 0.607747L139.133 0.642072L139.705 6.1123ZM162.167 6.46884L162.749 0.999704L162.502 0.973472L162.254 0.969536L162.167 6.46884ZM178.925 8.25157L179.931 2.84436L179.72 2.80512L179.507 2.78243L178.925 8.25157ZM194.256 11.1039L195.749 5.81047L195.508 5.74251L195.262 5.69673L194.256 11.1039ZM208.162 15.0259L210.204 9.91933L209.934 9.81138L209.655 9.73247L208.162 15.0259ZM218.858 19.3045L221.575 14.5225L221.249 14.3372L220.901 14.1979L218.858 19.3045ZM234.546 28.2181L238.002 23.9395L237.653 23.6577L237.263 23.4361L234.546 28.2181ZM243.816 35.7056L248.01 32.1472L247.675 31.7523L247.272 31.4269L243.816 35.7056ZM253.799 47.4716L258.619 44.8211L258.352 44.3357L257.993 43.9133L253.799 47.4716ZM257.721 54.6026L262.89 52.723L262.745 52.324L262.541 51.952L257.721 54.6026ZM260.574 62.4466L265.999 61.5424L265.916 61.0429L265.743 60.567L260.574 62.4466ZM262 71.0037H267.5V70.5485L267.425 70.0995L262 71.0037ZM262 78.4911L267.419 79.4335L267.5 78.9658V78.4911H262ZM260.574 86.6917L265.618 88.8847L265.88 88.2818L265.992 87.6341L260.574 86.6917ZM257.008 94.8923L261.174 98.4834L261.719 97.851L262.052 97.0852L257.008 94.8923ZM248.095 105.232L243.929 101.641L242.595 103.189V105.232H248.095ZM248.095 151.94L253.43 153.274L253.595 152.617V151.94H248.095ZM246.312 159.071L251.231 161.53L251.501 160.99L251.648 160.404L246.312 159.071ZM243.816 164.062L247.955 167.684L248.42 167.153L248.735 166.522L243.816 164.062ZM236.329 172.619L239.38 177.196L239.987 176.791L240.468 176.241L236.329 172.619ZM229.911 176.898L231.953 182.004L232.485 181.792L232.962 181.474L229.911 176.898ZM224.563 179.037L225.621 184.434L226.127 184.335L226.605 184.144L224.563 179.037ZM99.0585 203.639L99.4803 209.123L99.8009 209.098L100.116 209.036L99.0585 203.639ZM94.4234 203.995L93.712 209.449L94.2771 209.523L94.8452 209.479L94.4234 203.995ZM86.2228 202.926L85.0591 208.301L85.2836 208.35L85.5115 208.379L86.2228 202.926ZM51.6379 195.438L50.0307 200.698L50.25 200.765L50.4741 200.814L51.6379 195.438ZM38.8022 191.516L35.8143 196.134L36.4598 196.551L37.195 196.776L38.8022 191.516ZM32.7409 187.594L29.0104 191.636L29.357 191.956L29.7531 192.212L32.7409 187.594ZM28.1058 183.316L23.6125 186.487L23.9479 186.963L24.3753 187.357L28.1058 183.316ZM23.8273 177.254L18.6876 179.212L18.9343 179.86L19.334 180.426L23.8273 177.254ZM20.9749 169.767L15.5389 170.603L15.6276 171.18L15.8352 171.725L20.9749 169.767ZM20.2618 165.132H14.7618V165.552L14.8258 165.968L20.2618 165.132ZM20.2618 119.137H25.7618V116.739L24.0043 115.107L20.2618 119.137ZM15.2702 114.502L10.731 117.608L11.0777 118.115L11.5277 118.533L15.2702 114.502ZM10.6351 107.728L5.51326 109.732L5.74178 110.316L6.09591 110.834L10.6351 107.728ZM7.42618 99.5273L2.02039 100.541L2.11576 101.05L2.30435 101.532L7.42618 99.5273ZM6.35655 93.8226L0.862771 94.0842L0.88082 94.4632L0.950749 94.8362L6.35655 93.8226ZM6 86.3351L0.533639 85.7278L0.485483 86.1612L0.506225 86.5968L6 86.3351ZM6.71309 79.9173L1.54005 78.0493L1.3187 78.6622L1.24673 79.3099L6.71309 79.9173ZM11.3482 67.0817L6.836 63.9368L6.42141 64.5316L6.17514 65.2136L11.3482 67.0817ZM19.5487 55.3156L15.6597 51.4266L15.3151 51.7711L15.0366 52.1708L19.5487 55.3156ZM29.8886 44.9758L26.6722 40.5143L26.3128 40.7734L25.9995 41.0867L29.8886 44.9758ZM45.2201 33.9229L42.5598 29.1091L42.2711 29.2686L42.0036 29.4614L45.2201 33.9229ZM58.7688 26.4354L56.6152 21.3746L56.3555 21.4851L56.1085 21.6216L58.7688 26.4354ZM75.5265 19.3045L73.8466 14.0673L73.6057 14.1446L73.3729 14.2436L75.5265 19.3045ZM94.4234 13.2432L93.2587 7.86794L92.9978 7.92448L92.7435 8.00603L94.4234 13.2432ZM115.816 8.60812L115.245 3.13789L114.945 3.16915L114.652 3.23284L115.816 8.60812ZM139.016 68.4228C139.857 71.3413 142.906 73.0248 145.825 72.1829C148.743 71.341 150.427 68.2926 149.585 65.374L144.3 66.8984L139.016 68.4228ZM191.995 54.3918C192.781 57.3258 195.797 59.067 198.731 58.2809C201.665 57.4947 203.406 54.4788 202.62 51.5448L197.307 52.9683L191.995 54.3918ZM139.705 6.1123L139.617 11.6116L162.08 11.9682L162.167 6.46884L162.254 0.969536L139.792 0.61299L139.705 6.1123ZM162.167 6.46884L161.585 11.938L178.343 13.7207L178.925 8.25157L179.507 2.78243L162.749 0.999704L162.167 6.46884ZM178.925 8.25157L177.919 13.6588L193.25 16.5112L194.256 11.1039L195.262 5.69673L179.931 2.84436L178.925 8.25157ZM194.256 11.1039L192.763 16.3974L206.669 20.3194L208.162 15.0259L209.655 9.73247L195.749 5.81047L194.256 11.1039ZM208.162 15.0259L206.119 20.1326L216.815 24.4111L218.858 19.3045L220.901 14.1979L210.204 9.91933L208.162 15.0259ZM218.858 19.3045L216.141 24.0865L231.829 33.0002L234.546 28.2181L237.263 23.4361L221.575 14.5225L218.858 19.3045ZM234.546 28.2181L231.09 32.4968L240.36 39.9843L243.816 35.7056L247.272 31.4269L238.002 23.9395L234.546 28.2181ZM243.816 35.7056L239.622 39.264L249.606 51.03L253.799 47.4716L257.993 43.9133L248.01 32.1472L243.816 35.7056ZM253.799 47.4716L248.98 50.1222L252.902 57.2531L257.721 54.6026L262.541 51.952L258.619 44.8211L253.799 47.4716ZM257.721 54.6026L252.553 56.4821L255.405 64.3262L260.574 62.4466L265.743 60.567L262.89 52.723L257.721 54.6026ZM260.574 62.4466L255.149 63.3508L256.575 71.9079L262 71.0037L267.425 70.0995L265.999 61.5424L260.574 62.4466ZM262 71.0037H256.5V78.4911H262H267.5V71.0037H262ZM262 78.4911L256.581 77.5488L255.155 85.7493L260.574 86.6917L265.992 87.6341L267.419 79.4335L262 78.4911ZM260.574 86.6917L255.53 84.4987L251.964 92.6993L257.008 94.8923L262.052 97.0852L265.618 88.8847L260.574 86.6917ZM257.008 94.8923L252.843 91.3011L243.929 101.641L248.095 105.232L252.26 108.823L261.174 98.4834L257.008 94.8923ZM248.095 105.232H242.595V151.94H248.095H253.595V105.232H248.095ZM248.095 151.94L242.759 150.606L240.976 157.737L246.312 159.071L251.648 160.404L253.43 153.274L248.095 151.94ZM246.312 159.071L241.393 156.611L238.897 161.602L243.816 164.062L248.735 166.522L251.231 161.53L246.312 159.071ZM243.816 164.062L239.677 160.44L232.19 168.998L236.329 172.619L240.468 176.241L247.955 167.684L243.816 164.062ZM236.329 172.619L233.278 168.043L226.86 172.322L229.911 176.898L232.962 181.474L239.38 177.196L236.329 172.619ZM229.911 176.898L227.868 171.791L222.52 173.93L224.563 179.037L226.605 184.144L231.953 182.004L229.911 176.898ZM224.563 179.037L223.505 173.64L98.0005 198.242L99.0585 203.639L100.116 209.036L225.621 184.434L224.563 179.037ZM99.0585 203.639L98.6367 198.155L94.0016 198.512L94.4234 203.995L94.8452 209.479L99.4803 209.123L99.0585 203.639ZM94.4234 203.995L95.1348 198.542L86.9342 197.472L86.2228 202.926L85.5115 208.379L93.712 209.449L94.4234 203.995ZM86.2228 202.926L87.3866 197.55L52.8016 190.063L51.6379 195.438L50.4741 200.814L85.0591 208.301L86.2228 202.926ZM51.6379 195.438L53.2451 190.178L40.4094 186.256L38.8022 191.516L37.195 196.776L50.0307 200.698L51.6379 195.438ZM38.8022 191.516L41.7901 186.899L35.7288 182.977L32.7409 187.594L29.7531 192.212L35.8143 196.134L38.8022 191.516ZM32.7409 187.594L36.4715 183.553L31.8364 179.274L28.1058 183.316L24.3753 187.357L29.0104 191.636L32.7409 187.594ZM28.1058 183.316L32.5992 180.144L28.3206 174.083L23.8273 177.254L19.334 180.426L23.6125 186.487L28.1058 183.316ZM23.8273 177.254L28.967 175.296L26.1146 167.809L20.9749 169.767L15.8352 171.725L18.6876 179.212L23.8273 177.254ZM20.9749 169.767L26.411 168.931L25.6979 164.295L20.2618 165.132L14.8258 165.968L15.5389 170.603L20.9749 169.767ZM20.2618 165.132H25.7618V119.137H20.2618H14.7618V165.132H20.2618ZM20.2618 119.137L24.0043 115.107L19.0127 110.472L15.2702 114.502L11.5277 118.533L16.5194 123.168L20.2618 119.137ZM15.2702 114.502L19.8094 111.397L15.1743 104.622L10.6351 107.728L6.09591 110.834L10.731 117.608L15.2702 114.502ZM10.6351 107.728L15.7569 105.724L12.548 97.5232L7.42618 99.5273L2.30435 101.532L5.51326 109.732L10.6351 107.728ZM7.42618 99.5273L12.832 98.5138L11.7623 92.809L6.35655 93.8226L0.950749 94.8362L2.02039 100.541L7.42618 99.5273ZM6.35655 93.8226L11.8503 93.561L11.4938 86.0735L6 86.3351L0.506225 86.5968L0.862771 94.0842L6.35655 93.8226ZM6 86.3351L11.4664 86.9425L12.1795 80.5247L6.71309 79.9173L1.24673 79.3099L0.533639 85.7278L6 86.3351ZM6.71309 79.9173L11.8861 81.7854L16.5212 68.9497L11.3482 67.0817L6.17514 65.2136L1.54005 78.0493L6.71309 79.9173ZM11.3482 67.0817L15.8604 70.2265L24.0609 58.4605L19.5487 55.3156L15.0366 52.1708L6.836 63.9368L11.3482 67.0817ZM19.5487 55.3156L23.4378 59.2047L33.7777 48.8649L29.8886 44.9758L25.9995 41.0867L15.6597 51.4266L19.5487 55.3156ZM29.8886 44.9758L33.105 49.4373L48.4365 38.3844L45.2201 33.9229L42.0036 29.4614L26.6722 40.5143L29.8886 44.9758ZM45.2201 33.9229L47.8803 38.7367L61.4291 31.2492L58.7688 26.4354L56.1085 21.6216L42.5598 29.1091L45.2201 33.9229ZM58.7688 26.4354L60.9224 31.4963L77.68 24.3653L75.5265 19.3045L73.3729 14.2436L56.6152 21.3746L58.7688 26.4354ZM75.5265 19.3045L77.2063 24.5417L96.1032 18.4804L94.4234 13.2432L92.7435 8.00603L73.8466 14.0673L75.5265 19.3045ZM94.4234 13.2432L95.588 18.6185L116.981 13.9834L115.816 8.60812L114.652 3.23284L93.2587 7.86794L94.4234 13.2432ZM115.816 8.60812L116.388 14.0783L140.276 11.5825L139.705 6.1123L139.133 0.642072L115.245 3.13789L115.816 8.60812ZM65.8758 23.5897L67.4002 28.8742C98.0973 20.0192 130.161 37.7257 139.016 68.4228L144.3 66.8984L149.585 65.374C139.046 28.8398 100.886 7.76634 64.3514 18.3051L65.8758 23.5897ZM119.722 8.17426L121.145 13.4869C152.006 5.21792 183.726 23.5317 191.995 54.3918L197.307 52.9683L202.62 51.5448C192.779 14.8165 155.027 -6.97963 118.298 2.86167L119.722 8.17426Z" fill="white"/>
</svg>
