<svg xmlns="http://www.w3.org/2000/svg" version="1.1"  xmlns:xlink="http://www.w3.org/1999/xlink" width="250" height="100" viewbox="0 0 250 100"><g visibility="hidden"><rect id="square" width="50" height="50" shape-rendering="crispEdges" /><path id="htt" d="M 0 0 h 50 L 0 50 Z" shape-rendering="crispEdges" /><path id="qcirc" d="M 0 0 h 50 A 50 50 0 0 1 0 50 Z" shape-rendering="geometricPrecision" /><path id="eye" d="M 50 0 A 50 50 0 0 1 0 50 A 50 50 0 0 1 50 0" shape-rendering="geometricPrecision" /></g><use xlink:href="#square" transform="translate(0 0)" fill="#ff6641" /><use xlink:href="#eye" fill="#211814" transform="translate(0 0) rotate(90 25 25)" /><use xlink:href="#square" transform="translate(0 50)" fill="transparent" /><use xlink:href="#qcirc" fill="#236df6" transform="translate(0 50) rotate(90 25 25)" /><use xlink:href="#square" transform="translate(50 0)" fill="#236df6" /><use xlink:href="#square" transform="translate(50 50)" fill="transparent" /><use xlink:href="#htt" fill="#ff6641" transform="translate(50 50) rotate(180 25 25)" /><use xlink:href="#square" transform="translate(100 0)" fill="#236df6" /><use xlink:href="#htt" fill="#ff6641" transform="translate(100 0) rotate(90 25 25)" /><use xlink:href="#square" transform="translate(100 50)" fill="#fed132" /><use xlink:href="#square" transform="translate(150 0)" fill="#ff6641" /><use xlink:href="#eye" fill="#fed132" transform="translate(150 0) rotate(270 25 25)" /><use xlink:href="#square" transform="translate(150 50)" fill="#236df6" /><use xlink:href="#square" transform="translate(200 0)" fill="#211814" /><use xlink:href="#htt" fill="#fed132" transform="translate(200 0) rotate(0 25 25)" /><use xlink:href="#square" transform="translate(200 50)" fill="#ff6641" /><use xlink:href="#qcirc" fill="#236df6" transform="translate(200 50) rotate(0 25 25)" /></svg>